<svg width="51" height="22" viewBox="0 0 51 22" fill="none" xmlns="http://www.w3.org/2000/svg">
<g clip-path="url(#clip0_60_97)">
<path d="M9.39692 3.20742C8.80219 3.91675 7.85063 4.47621 6.89907 4.39629C6.78012 3.4372 7.24599 2.41817 7.79116 1.78877C8.38589 1.05947 9.42666 0.539962 10.2692 0.5C10.3683 1.49905 9.98173 2.47812 9.39692 3.20742ZM10.2593 4.58611C8.88149 4.50619 7.70195 5.37536 7.04775 5.37536C6.38364 5.37536 5.38252 4.62607 4.29218 4.64605C2.87475 4.66603 1.55644 5.47526 0.832858 6.76403C-0.653958 9.34158 0.446286 13.1579 1.88354 15.2559C2.5873 16.295 3.42983 17.4339 4.53999 17.3939C5.59067 17.354 6.00698 16.7046 7.27573 16.7046C8.55439 16.7046 8.92114 17.3939 10.0313 17.3739C11.1811 17.3539 11.9047 16.3349 12.6084 15.2959C13.4113 14.117 13.7384 12.9681 13.7582 12.9082C13.7384 12.8882 11.5379 12.039 11.5181 9.48145C11.4983 7.34348 13.2527 6.32445 13.332 6.26451C12.3408 4.78592 10.7945 4.62607 10.2593 4.58611ZM18.2187 1.68887V17.264H20.6174V11.9391H23.938C26.9711 11.9391 29.1022 9.8411 29.1022 6.804C29.1022 3.76689 27.0107 1.68887 24.0173 1.68887H18.2187ZM20.6174 3.72693H23.3829C25.4644 3.72693 26.6539 4.84586 26.6539 6.81399C26.6539 8.78211 25.4644 9.91104 23.373 9.91104H20.6174V3.72693ZM33.4833 17.3839C34.99 17.3839 36.3876 16.6147 37.022 15.3958H37.0715V17.264H39.2918V9.51142C39.2918 7.26356 37.5077 5.81494 34.762 5.81494C32.2146 5.81494 30.3313 7.28354 30.2619 9.30162H32.4227C32.6012 8.34253 33.4833 7.71313 34.6926 7.71313C36.1596 7.71313 36.9823 8.40247 36.9823 9.67127V10.5304L33.9889 10.7103C31.2036 10.8801 29.6969 12.029 29.6969 14.0271C29.6969 16.0452 31.2531 17.3839 33.4833 17.3839ZM34.1276 15.5357C32.849 15.5357 32.0362 14.9163 32.0362 13.9672C32.0362 12.9881 32.8192 12.4186 34.316 12.3287L36.9823 12.1589V13.0381C36.9823 14.4967 35.7532 15.5357 34.1276 15.5357ZM42.2556 21.5C44.5948 21.5 45.6951 20.6009 46.6565 17.8735L50.8692 5.9648H48.4308L45.6059 15.166H45.5563L42.7313 5.9648H40.2236L44.2875 17.304L44.0695 17.9933C43.7027 19.1622 43.108 19.6118 42.0474 19.6118C41.8591 19.6118 41.4923 19.5918 41.3436 19.5718V21.4401C41.4824 21.48 42.0771 21.5 42.2556 21.5Z" fill="black"/>
</g>
<defs>
<clipPath id="clip0_60_97">
<rect width="50.75" height="21" fill="white" transform="translate(0.125 0.5)"/>
</clipPath>
</defs>
</svg>
