<svg width="20" height="20" viewBox="0 0 20 20" fill="none" xmlns="http://www.w3.org/2000/svg">
<path fill-rule="evenodd" clip-rule="evenodd" d="M13.7614 17.9167H6.80492C4.24962 17.9167 2.28928 16.9937 2.84611 13.279L3.49447 8.24466C3.83772 6.39111 5.02002 5.68173 6.0574 5.68173H14.5395C15.5921 5.68173 16.7058 6.44451 17.1024 8.24466L17.7508 13.279C18.2237 16.5742 16.3167 17.9167 13.7614 17.9167Z" stroke="#B2B2B2" stroke-width="1.5" stroke-linecap="round" stroke-linejoin="round"/>
<path d="M13.8759 5.49865C13.8759 3.51026 12.2639 1.89832 10.2755 1.89832C9.31805 1.89429 8.39837 2.27182 7.71988 2.94745C7.04139 3.62307 6.65999 4.54114 6.65999 5.49865" stroke="#B2B2B2" stroke-width="1.5" stroke-linecap="round" stroke-linejoin="round"/>
<path d="M12.747 9.25153H12.7088" stroke="#B2B2B2" stroke-width="1.5" stroke-linecap="round" stroke-linejoin="round"/>
<path d="M7.88807 9.25153H7.84993" stroke="#B2B2B2" stroke-width="1.5" stroke-linecap="round" stroke-linejoin="round"/>
</svg>
