<svg width="51" height="22" viewBox="0 0 51 22" fill="none" xmlns="http://www.w3.org/2000/svg">
<g clip-path="url(#clip0_60_87)">
<path d="M24.1214 10.7592V16.915H22.238V1.71297H27.233C27.8293 1.70005 28.4221 1.8097 28.9772 2.03558C29.5324 2.26146 30.0389 2.59911 30.4676 3.02903C30.9005 3.43285 31.2451 3.92809 31.4782 4.48147C31.7112 5.03485 31.8273 5.63354 31.8187 6.23731C31.8311 6.84431 31.7168 7.44692 31.4835 8.00382C31.2503 8.56073 30.9038 9.05876 30.4676 9.46379C29.5941 10.3274 28.5159 10.7588 27.233 10.758H24.1214V10.7592ZM24.1214 3.58457V8.89127H27.2798C27.6261 8.90192 27.9707 8.8375 28.2916 8.70216C28.6125 8.56682 28.9026 8.36352 29.1433 8.10527C29.3829 7.86382 29.5732 7.57502 29.7033 7.25594C29.8333 6.93687 29.9002 6.594 29.9002 6.24762C29.9002 5.90124 29.8333 5.55838 29.7033 5.2393C29.5732 4.92023 29.3829 4.63143 29.1433 4.38997C28.9056 4.12628 28.6165 3.918 28.2952 3.77894C27.9739 3.63988 27.6278 3.57321 27.2798 3.58335H24.1214V3.58457Z" fill="#5F6368"/>
<path d="M36.1587 6.17424C37.5507 6.17424 38.6496 6.55996 39.4552 7.33141C40.2608 8.10285 40.6632 9.16055 40.6624 10.5045V16.915H38.8609V15.4716H38.779C37.9992 16.6603 36.9619 17.2546 35.6673 17.2546C34.5623 17.2546 33.6377 16.915 32.8937 16.2358C32.5367 15.924 32.2512 15.5336 32.0582 15.0929C31.8651 14.6522 31.7693 14.1725 31.7777 13.6885C31.7777 12.6122 32.17 11.7563 32.9546 11.1207C33.7391 10.4851 34.7865 10.1665 36.0967 10.1649C37.215 10.1649 38.136 10.3772 38.8597 10.8017V10.3553C38.8619 10.0254 38.7932 9.69915 38.6586 9.40019C38.5241 9.10123 38.327 8.83706 38.0818 8.62685C37.5838 8.16092 36.9347 7.9067 36.2639 7.91484C35.2119 7.91484 34.3794 8.37496 33.7664 9.29519L32.1076 8.21202C33.0201 6.8535 34.3704 6.17424 36.1587 6.17424ZM33.722 13.731C33.7207 13.9795 33.7767 14.2248 33.8854 14.4463C33.994 14.6679 34.1522 14.8593 34.3466 15.0046C34.7632 15.3443 35.2802 15.5243 35.8101 15.514C36.6048 15.5127 37.3666 15.1847 37.9286 14.6019C38.5525 13.993 38.8644 13.2786 38.8644 12.4586C38.2772 11.9734 37.4583 11.7308 36.4078 11.7308C35.6428 11.7308 35.0048 11.9221 34.494 12.3045C33.9781 12.6927 33.722 13.1645 33.722 13.731Z" fill="#5F6368"/>
<path d="M51.0035 6.51387L44.7146 21.5H42.7704L45.1042 16.2564L40.9689 6.51387H43.0161L46.0049 13.9857H46.0459L48.9529 6.51387H51.0035Z" fill="#5F6368"/>
<path d="M16.5106 9.43225C16.5113 8.83712 16.4628 8.24301 16.3656 7.65648H8.42261V11.02H12.972C12.8789 11.5572 12.6818 12.0693 12.3927 12.5254C12.1036 12.9816 11.7284 13.3723 11.2898 13.674V15.8573H14.0049C15.5947 14.3375 16.5106 12.0899 16.5106 9.43225Z" fill="#4285F4"/>
<path d="M8.42257 17.9666C10.6955 17.9666 12.6093 17.1928 14.0049 15.8585L11.2898 13.6752C10.5341 14.2065 9.5608 14.5097 8.42257 14.5097C6.22568 14.5097 4.36101 12.9741 3.69422 10.9048H0.897217V13.1548C1.59824 14.6013 2.67319 15.8172 4.00205 16.6669C5.3309 17.5166 6.86137 17.9666 8.42257 17.9666Z" fill="#34A853"/>
<path d="M3.69423 10.9048C3.34172 9.82044 3.34172 8.64619 3.69423 7.56186V5.31181H0.897223C0.307496 6.5286 0.000366211 7.87152 0.000366211 9.23332C0.000366211 10.5951 0.307496 11.938 0.897223 13.1548L3.69423 10.9048Z" fill="#FBBC04"/>
<path d="M8.42257 3.95693C9.62372 3.93658 10.7843 4.40715 11.6536 5.26693L14.0575 2.7743C12.5332 1.28972 10.5137 0.474668 8.42257 0.499993C6.86137 0.500067 5.3309 0.950068 4.00205 1.79976C2.67319 2.64945 1.59824 3.86538 0.897217 5.31181L3.69422 7.56185C4.36101 5.49254 6.22568 3.95693 8.42257 3.95693Z" fill="#EA4335"/>
</g>
<defs>
<clipPath id="clip0_60_87">
<rect width="51" height="21" fill="white" transform="translate(0 0.5)"/>
</clipPath>
</defs>
</svg>
