<svg width="23" height="26" viewBox="0 0 23 26" fill="none" xmlns="http://www.w3.org/2000/svg">
<path d="M6.88737 25.1186L7.32422 22.2564L6.35112 22.2331H1.70447L4.93365 1.11314C4.94368 1.04938 4.97625 0.98993 5.02386 0.947713C5.07148 0.905495 5.13245 0.882233 5.19593 0.882233H13.0308C15.6319 0.882233 17.4269 1.44054 18.3641 2.5425C18.8035 3.05945 19.0833 3.59966 19.2186 4.19416C19.3606 4.81794 19.3631 5.56321 19.2244 6.47218L19.2144 6.53852V7.12095L19.6538 7.3777C20.0238 7.58018 20.3178 7.81194 20.5433 8.07731C20.9192 8.5193 21.1623 9.08105 21.265 9.74706C21.3711 10.432 21.336 11.2471 21.1623 12.1698C20.9618 13.2313 20.6377 14.1558 20.2 14.9122C19.7974 15.6093 19.2846 16.1874 18.6757 16.6354C18.0943 17.061 17.4035 17.3841 16.6225 17.5909C15.8658 17.7942 15.0029 17.8968 14.0566 17.8968H13.4468C13.0108 17.8968 12.5873 18.0587 12.2549 18.3491C11.9216 18.6455 11.7011 19.0504 11.6334 19.4933L11.5875 19.7509L10.8157 24.7955L10.7806 24.9807C10.7714 25.0393 10.7555 25.0686 10.7322 25.0884C10.7113 25.1065 10.6812 25.1186 10.652 25.1186H6.88737Z" fill="#253B80"/>
<path d="M20.0698 6.60577C20.0464 6.76 20.0196 6.91767 19.9896 7.07964C18.9563 12.5516 15.4214 14.4419 10.9068 14.4419H8.60807C8.05595 14.4419 7.5907 14.8554 7.50467 15.4172L6.32776 23.1163L5.99448 25.2987C5.93852 25.6674 6.21416 26 6.575 26H10.652C11.1348 26 11.5449 25.6381 11.6209 25.147L11.661 24.9334L12.4286 19.9086L12.4779 19.6329C12.5531 19.1401 12.964 18.7782 13.4468 18.7782H14.0566C18.0066 18.7782 21.0988 17.124 22.0026 12.337C22.3801 10.3373 22.1847 8.66754 21.1857 7.4932C20.8833 7.13909 20.5083 6.84529 20.0698 6.60577Z" fill="#179BD7"/>
<path d="M18.9889 6.16118C18.8311 6.1138 18.6682 6.07072 18.5011 6.03195C18.3333 5.99404 18.1612 5.96043 17.9841 5.93114C17.3643 5.82775 16.6852 5.77864 15.9577 5.77864H9.81675C9.66557 5.77864 9.5219 5.81397 9.39326 5.87772C9.11011 6.01816 8.89962 6.29473 8.84866 6.63333L7.54229 15.1682L7.5047 15.4172C7.59073 14.8554 8.05598 14.4419 8.6081 14.4419H10.9068C15.4215 14.4419 18.9564 12.5507 19.9896 7.07963C20.0205 6.91765 20.0464 6.75998 20.0698 6.60576C19.8084 6.46274 19.5252 6.34039 19.2203 6.23614C19.1451 6.21029 19.0675 6.18531 18.9889 6.16118Z" fill="#222D65"/>
<path d="M8.84866 6.63333C8.89961 6.29472 9.1101 6.01816 9.39326 5.87858C9.52273 5.81482 9.66556 5.7795 9.81674 5.7795H15.9577C16.6852 5.7795 17.3643 5.82861 17.9841 5.932C18.1612 5.96129 18.3332 5.99489 18.5011 6.0328C18.6682 6.07157 18.8311 6.11465 18.9889 6.16204C19.0675 6.18616 19.1451 6.21115 19.2211 6.23614C19.526 6.34039 19.8092 6.46359 20.0706 6.60575C20.378 4.58362 20.0681 3.20681 19.0082 1.9601C17.8396 0.587599 15.7305 0 13.0317 0H5.19682C4.64554 0 4.17527 0.41356 4.09008 0.976173L0.826642 22.3133C0.762325 22.7354 1.07806 23.1163 1.49069 23.1163H6.32779L7.54228 15.1682L8.84866 6.63333Z" fill="#253B80"/>
</svg>
