<svg width="21" height="20" viewBox="0 0 21 20" fill="none" xmlns="http://www.w3.org/2000/svg">
<path fill-rule="evenodd" clip-rule="evenodd" d="M10.5371 18.0516C7.46063 18.0516 4.83335 17.5728 4.83335 15.6556C4.83335 13.7383 7.44396 11.9683 10.5371 11.9683C13.6137 11.9683 16.2409 13.7211 16.2409 15.6384C16.2409 17.5549 13.6304 18.0516 10.5371 18.0516Z" stroke="#B2B2B2" stroke-width="1.5" stroke-linecap="round" stroke-linejoin="round"/>
<path fill-rule="evenodd" clip-rule="evenodd" d="M10.531 9.31143C12.55 9.31143 14.1864 7.67503 14.1864 5.6561C14.1864 3.63716 12.55 2.00003 10.531 2.00003C8.51212 2.00003 6.875 3.63716 6.875 5.6561C6.86819 7.66821 8.49319 9.3046 10.5053 9.31143C10.5144 9.31143 10.5227 9.31143 10.531 9.31143Z" stroke="#B2B2B2" stroke-width="1.5" stroke-linecap="round" stroke-linejoin="round"/>
</svg>
