<svg width="49" height="16" viewBox="0 0 49 16" fill="none" xmlns="http://www.w3.org/2000/svg">
<path d="M21.2333 15.7692H17.2639L19.7466 0.28075H23.7158L21.2333 15.7692Z" fill="white"/>
<path d="M35.6225 0.659396C34.8396 0.34601 33.5978 -7.62939e-06 32.0623 -7.62939e-06C28.1425 -7.62939e-06 25.3821 2.10895 25.3652 5.12411C25.3327 7.3487 27.3415 8.58428 28.844 9.32603C30.3797 10.084 30.9017 10.5787 30.9017 11.2543C30.8861 12.2919 29.6608 12.7702 28.518 12.7702C26.9332 12.7702 26.0841 12.5236 24.7937 11.9463L24.271 11.6989L23.7156 15.1757C24.6465 15.6036 26.3617 15.9834 28.1425 16C32.3074 16 35.0189 13.9237 35.051 10.7105C35.0669 8.94738 34.0061 7.59638 31.7192 6.49241C30.3309 5.78374 29.4806 5.30588 29.4806 4.58078C29.4969 3.92159 30.1998 3.24642 31.7669 3.24642C33.0573 3.21335 34.0054 3.5263 34.7237 3.83947L35.0827 4.00394L35.6225 0.659396Z" fill="white"/>
<path d="M40.8981 10.2822C41.225 9.39239 42.4829 5.94864 42.4829 5.94864C42.4664 5.98171 42.8091 5.04243 43.0051 4.46581L43.2825 5.80038C43.2825 5.80038 44.0342 9.5078 44.1974 10.2822C43.5771 10.2822 41.6821 10.2822 40.8981 10.2822ZM45.7978 0.28075H42.7275C41.7807 0.28075 41.0613 0.56063 40.6528 1.56583L34.7569 15.769H38.9218C38.9218 15.769 39.6075 13.8573 39.7549 13.4456C40.2118 13.4456 44.2634 13.4456 44.8512 13.4456C44.9651 13.9894 45.3248 15.769 45.3248 15.769H49L45.7978 0.28075Z" fill="white"/>
<path d="M13.9486 0.28075L10.0613 10.8424L9.6365 8.70036C8.91782 6.22874 6.66389 3.54339 4.14862 2.20815L7.70924 15.7528H11.9067L18.1458 0.28075H13.9486Z" fill="white"/>
<path d="M6.45162 0.28075H0.0653342L0 0.593698C4.9817 1.879 8.28099 4.97716 9.63651 8.70101L8.24821 1.58269C8.01965 0.59348 7.31725 0.313381 6.45162 0.28075Z" fill="white"/>
</svg>
